<?xml version="1.0" encoding="UTF-8"?>
<svg width="114px" height="48px" viewBox="0 0 114 48" version="1.1" xmlns="http://www.w3.org/2000/svg" xmlns:xlink="http://www.w3.org/1999/xlink">
    <!-- Generator: Sketch 63 (92445) - https://sketch.com -->
    <title>GDPR compliant - GDPR Copy 11</title>
    <desc>Created with Sketch.</desc>
    <defs>
        <filter x="-11.3%" y="-30.0%" width="122.6%" height="160.0%" filterUnits="objectBoundingBox" id="filter-1">
            <feOffset dx="0" dy="2" in="SourceAlpha" result="shadowOffsetOuter1"></feOffset>
            <feGaussianBlur stdDeviation="2" in="shadowOffsetOuter1" result="shadowBlurOuter1"></feGaussianBlur>
            <feColorMatrix values="0 0 0 0 0.847058824   0 0 0 0 0.866666667   0 0 0 0 0.890196078  0 0 0 1 0" type="matrix" in="shadowBlurOuter1" result="shadowMatrixOuter1"></feColorMatrix>
            <feMerge>
                <feMergeNode in="shadowMatrixOuter1"></feMergeNode>
                <feMergeNode in="SourceGraphic"></feMergeNode>
            </feMerge>
        </filter>
    </defs>
    <g id="Page-1" stroke="none" stroke-width="1" fill="none" fill-rule="evenodd">
        <g id="GDPR-Badges" transform="translate(-84.000000, -293.000000)">
            <g id="GDPR-compliant---GDPR-Copy-11" filter="url(#filter-1)" transform="translate(88.000000, 295.000000)">
                <rect id="Rectangle-" fill="#2050E0" x="0" y="0" width="106" height="40" rx="6"></rect>
                <g id="Group" transform="translate(8.000000, 6.000000)" fill="#F8D12E" fill-rule="nonzero">
                    <polygon id="Shape" points="14.0000393 0 14.4535908 1.46796068 15.9215686 1.46796068 14.7340281 2.37517657 15.1875797 3.84313725 14.0000393 2.93534337 12.8127343 3.84313725 13.2663644 2.37517657 12.0784314 1.46796068 13.5464092 1.46796068"></polygon>
                    <polygon id="Shape" points="14.0000393 24.1568627 14.4535908 25.6252632 15.9215686 25.6252632 14.7340281 26.5323426 15.1875797 28 14.0000393 27.0930031 12.8127343 28 13.2663644 26.5323426 12.0784314 25.6252632 13.5464092 25.6252632"></polygon>
                    <polygon id="Shape" points="20.0392157 2.19607843 20.4925966 3.66402247 21.9607843 3.66402247 20.7729955 4.57160186 21.2266904 6.03921569 20.0392157 5.1316363 18.8515054 6.03921569 19.3051218 4.57160186 18.1176471 3.66402247 19.5858348 3.66402247"></polygon>
                    <polygon id="Shape" points="24.9217649 18 25.375118 19.468444 26.8431373 19.468444 25.6554997 20.3756015 26.1094024 21.8431373 24.9217649 20.9363101 23.7340489 21.8431373 24.187716 20.3756015 23 19.468444 24.4680977 19.468444"></polygon>
                    <polygon id="Shape" points="26.0785491 12.0784314 26.5319023 13.5462659 28 13.5462659 26.8123625 14.4534038 27.2659511 15.9215686 26.0785491 15.014761 24.8909116 15.9215686 25.3448143 14.4534038 24.1568627 13.5462659 25.6246464 13.5462659"></polygon>
                    <polygon id="Shape" points="1.92184346 12.0784314 2.37523362 13.5462659 3.84313725 13.5462659 2.65540266 14.4534038 3.10934248 15.9215686 1.92184346 15.014761 0.734030343 15.9215686 1.18773459 14.4534038 0 13.5462659 1.46813921 13.5462659"></polygon>
                    <polygon id="Shape" points="2.92184346 18 3.37523362 19.468444 4.84313725 19.468444 3.65571675 20.3756015 4.10902839 21.8431373 2.92184346 20.9363101 1.73410887 21.8431373 2.18773459 20.3756015 1 19.468444 2.46821773 19.468444"></polygon>
                    <polygon id="Shape" points="24.9217649 6 25.375118 7.46844404 26.8431373 7.46844404 25.6554997 8.37560145 26.1094024 9.84313725 24.9217649 8.93631011 23.7340489 9.84313725 24.187716 8.37560145 23 7.46844404 24.4680977 7.46844404"></polygon>
                    <polygon id="Shape" points="3.42184346 6 3.87523362 7.46844404 5.34313725 7.46844404 4.15571675 8.37560145 4.60902839 9.84313725 3.42184346 8.93631011 2.23410887 9.84313725 2.68773459 8.37560145 1.5 7.46844404 2.96821773 7.46844404"></polygon>
                    <polygon id="Shape" points="21.1373727 23.0588235 21.5907258 24.5265635 23.0588235 24.5265635 21.8708719 25.4342208 22.3247747 26.9019608 21.1373727 25.9948813 19.9494211 26.9019608 20.4034023 25.4342208 19.2156863 24.5265635 20.683784 24.5265635"></polygon>
                    <polygon id="Shape" points="7.96082358 2.19607843 8.41413521 3.66402247 9.88235294 3.66402247 8.69461835 4.57160186 9.14855817 6.03921569 7.96082358 5.1316363 6.77332455 6.03921569 7.22695028 4.57160186 6.03921569 3.66402247 7.50711933 3.66402247"></polygon>
                    <polygon id="Shape" points="6.86262732 23.0588235 7.31621598 24.5273186 8.78431373 24.5273186 7.5966762 25.4341262 8.05026485 26.9019608 6.86262732 25.9954008 5.67522534 26.9019608 6.128814 25.4341262 4.94117647 24.5273186 6.40896015 24.5273186"></polygon>
                </g>
                <path d="M45,15.5957447 C45,18.4197965 47.1632047,20.1914894 49.8204748,20.1914894 C51.5029674,20.1914894 52.7982196,19.5121184 53.7596439,18.4597595 L53.7596439,14.9829787 L49.4599407,14.9829787 L49.4599407,16.8878816 L51.5029674,16.8878816 L51.5029674,17.6338575 C51.1424332,17.9269195 50.5148368,18.1666975 49.8204748,18.1666975 C48.3649852,18.1666975 47.3367953,17.0477336 47.3367953,15.5957447 C47.3367953,14.1437558 48.3649852,13.0247919 49.8204748,13.0247919 C50.6617211,13.0247919 51.34273,13.4910268 51.7032641,14.0771508 L53.6261128,13.0647549 C52.9718101,11.9591119 51.7700297,11 49.8204748,11 C47.1632047,11 45,12.7716929 45,15.5957447 Z M55.1083086,20.0316374 L55.1083086,11.146531 L58.847181,11.146531 C61.6513353,11.146531 63.6676558,12.8249769 63.6676558,15.5824237 C63.6676558,18.3398705 61.6513353,20.0316374 58.8605341,20.0316374 L55.1083086,20.0316374 Z M57.4050445,18.0334875 L58.847181,18.0334875 C60.4094955,18.0334875 61.3175074,16.9012026 61.3175074,15.5824237 C61.3175074,14.2103608 60.4896142,13.1446809 58.8605341,13.1446809 L57.4050445,13.1446809 L57.4050445,18.0334875 Z M64.8160237,20.0316374 L64.8160237,11.146531 L69.2759644,11.146531 C71.2789318,11.146531 72.3738872,12.4919519 72.3738872,14.1037928 C72.3738872,15.7023127 71.2789318,17.0210916 69.2759644,17.0210916 L67.1127596,17.0210916 L67.1127596,20.0316374 L64.8160237,20.0316374 Z M70.037092,14.0904718 C70.037092,13.4777058 69.5830861,13.0780759 68.9688427,13.0780759 L67.1127596,13.0780759 L67.1127596,15.0762257 L68.9688427,15.0762257 C69.5830861,15.0762257 70.037092,14.6899167 70.037092,14.0904718 Z M78.3694362,20.0316374 L76.8738872,17.0210916 L75.6988131,17.0210916 L75.6988131,20.0316374 L73.4020772,20.0316374 L73.4020772,11.146531 L77.8620178,11.146531 C79.8382789,11.146531 80.9599407,12.4519889 80.9599407,14.1037928 C80.9599407,15.6490287 80.0118694,16.4749306 79.1839763,16.7679926 L81,20.0316374 L78.3694362,20.0316374 Z M78.6231454,14.0771508 C78.6231454,13.4643848 78.115727,13.0780759 77.5148368,13.0780759 L75.6988131,13.0780759 L75.6988131,15.0762257 L77.5148368,15.0762257 C78.115727,15.0762257 78.6231454,14.6899167 78.6231454,14.0771508 Z" id="GDPR" fill="#FFFFFF"></path>
                <path d="M25.1428571,19.1363636 L24.7142857,19.1363636 L24.7142857,17.8068182 C24.7142857,16.259375 23.4964286,15 22,15 C20.5035714,15 19.2857143,16.259375 19.2857143,17.8068182 L19.2857143,19.1363636 L18.8571429,19.1363636 C18.3839286,19.1363636 18,19.5333807 18,20.0227273 L18,23.5681818 C18,24.0575284 18.3839286,24.4545455 18.8571429,24.4545455 L25.1428571,24.4545455 C25.6160714,24.4545455 26,24.0575284 26,23.5681818 L26,20.0227273 C26,19.5333807 25.6160714,19.1363636 25.1428571,19.1363636 Z M23.2857143,19.1363636 L20.7142857,19.1363636 L20.7142857,17.8068182 C20.7142857,17.0737216 21.2910714,16.4772727 22,16.4772727 C22.7089286,16.4772727 23.2857143,17.0737216 23.2857143,17.8068182 L23.2857143,19.1363636 Z" id="Shape" fill="#FFFFFF" fill-rule="nonzero"></path>
                <text id="Compliant" font-family="HelveticaNeue-Bold, Helvetica Neue" font-size="8" font-weight="bold" letter-spacing="0.200000003" fill="#FFFFFF">
                    <tspan x="45" y="31">COMPLIANT</tspan>
                </text>
            </g>
        </g>
    </g>
</svg>