<?xml version="1.0" encoding="UTF-8"?>
<svg width="106px" height="48px" viewBox="0 0 106 48" version="1.1" xmlns="http://www.w3.org/2000/svg" xmlns:xlink="http://www.w3.org/1999/xlink">
    <!-- Generator: Sketch 63 (92445) - https://sketch.com -->
    <title>GDPR compliant - GDPR Copy 7</title>
    <desc>Created with Sketch.</desc>
    <defs>
        <filter x="-12.2%" y="-30.0%" width="124.5%" height="160.0%" filterUnits="objectBoundingBox" id="filter-1">
            <feOffset dx="0" dy="2" in="SourceAlpha" result="shadowOffsetOuter1"></feOffset>
            <feGaussianBlur stdDeviation="2" in="shadowOffsetOuter1" result="shadowBlurOuter1"></feGaussianBlur>
            <feColorMatrix values="0 0 0 0 0.847058824   0 0 0 0 0.866666667   0 0 0 0 0.890196078  0 0 0 1 0" type="matrix" in="shadowBlurOuter1" result="shadowMatrixOuter1"></feColorMatrix>
            <feMerge>
                <feMergeNode in="shadowMatrixOuter1"></feMergeNode>
                <feMergeNode in="SourceGraphic"></feMergeNode>
            </feMerge>
        </filter>
    </defs>
    <g id="Page-1" stroke="none" stroke-width="1" fill="none" fill-rule="evenodd">
        <g id="GDPR-Badges" transform="translate(-594.000000, -343.000000)">
            <g id="GDPR-compliant---GDPR-Copy-7" filter="url(#filter-1)" transform="translate(598.000000, 345.000000)">
                <path d="M92,0.5 L6,0.5 C4.48121694,0.5 3.10621694,1.11560847 2.1109127,2.1109127 C1.11560847,3.10621694 0.5,4.48121694 0.5,6 L0.5,34 C0.5,35.5187831 1.11560847,36.8937831 2.1109127,37.8890873 C3.10621694,38.8843915 4.48121694,39.5 6,39.5 L92,39.5 C93.5187831,39.5 94.8937831,38.8843915 95.8890873,37.8890873 C96.8843915,36.8937831 97.5,35.5187831 97.5,34 L97.5,6 C97.5,4.48121694 96.8843915,3.10621694 95.8890873,2.1109127 C94.8937831,1.11560847 93.5187831,0.5 92,0.5 Z" id="Rectangle-" stroke="#E7E7E7" fill="#FFFFFF"></path>
                <g id="Group" transform="translate(6.000000, 6.000000)" fill="#EA6C00" fill-rule="nonzero">
                    <polygon id="Shape" points="14.0000393 0 14.4535908 1.46796068 15.9215686 1.46796068 14.7340281 2.37517657 15.1875797 3.84313725 14.0000393 2.93534337 12.8127343 3.84313725 13.2663644 2.37517657 12.0784314 1.46796068 13.5464092 1.46796068"></polygon>
                    <polygon id="Shape" points="14.0000393 24.1568627 14.4535908 25.6252632 15.9215686 25.6252632 14.7340281 26.5323426 15.1875797 28 14.0000393 27.0930031 12.8127343 28 13.2663644 26.5323426 12.0784314 25.6252632 13.5464092 25.6252632"></polygon>
                    <polygon id="Shape" points="20.0392157 2.19607843 20.4925966 3.66402247 21.9607843 3.66402247 20.7729955 4.57160186 21.2266904 6.03921569 20.0392157 5.1316363 18.8515054 6.03921569 19.3051218 4.57160186 18.1176471 3.66402247 19.5858348 3.66402247"></polygon>
                    <polygon id="Shape" points="24.9805492 6.35947712 25.433893 7.82731166 26.9019608 7.82731166 25.714269 8.73477984 26.1679269 10.2026144 24.9805492 9.29547645 23.7928574 10.2026144 24.2465153 8.73477984 23.0588235 7.82731166 24.5265772 7.82731166"></polygon>
                    <polygon id="Shape" points="24.9805884 18.1176471 25.4339416 19.5860911 26.9019608 19.5860911 25.7143233 20.4932485 26.168226 21.9607843 24.9805884 21.0539572 23.7928724 21.9607843 24.2465396 20.4932485 23.0588235 19.5860911 24.5269213 19.5860911"></polygon>
                    <polygon id="Shape" points="3.0197649 6.35947712 3.47318285 7.82731166 4.94117647 7.82731166 3.75360465 8.73477984 4.2070226 10.2026144 3.0197649 9.29547645 1.8319575 10.2026144 2.28561103 8.73477984 1.09803922 7.82731166 2.56634695 7.82731166"></polygon>
                    <polygon id="Shape" points="26.0785491 12.0784314 26.5319023 13.5462659 28 13.5462659 26.8123625 14.4534038 27.2659511 15.9215686 26.0785491 15.014761 24.8909116 15.9215686 25.3448143 14.4534038 24.1568627 13.5462659 25.6246464 13.5462659"></polygon>
                    <polygon id="Shape" points="1.92184346 12.0784314 2.37523362 13.5462659 3.84313725 13.5462659 2.65540266 14.4534038 3.10934248 15.9215686 1.92184346 15.014761 0.734030343 15.9215686 1.18773459 14.4534038 0 13.5462659 1.46813921 13.5462659"></polygon>
                    <polygon id="Shape" points="3.01988267 18.1176471 3.47327283 19.5860911 4.94117647 19.5860911 3.75375597 20.4932485 4.20706761 21.9607843 3.01988267 21.0539572 1.83214808 21.9607843 2.28577381 20.4932485 1.09803922 19.5860911 2.56625695 19.5860911"></polygon>
                    <polygon id="Shape" points="21.1373727 23.0588235 21.5907258 24.5265635 23.0588235 24.5265635 21.8708719 25.4342208 22.3247747 26.9019608 21.1373727 25.9948813 19.9494211 26.9019608 20.4034023 25.4342208 19.2156863 24.5265635 20.683784 24.5265635"></polygon>
                    <polygon id="Shape" points="7.96082358 2.19607843 8.41413521 3.66402247 9.88235294 3.66402247 8.69461835 4.57160186 9.14855817 6.03921569 7.96082358 5.1316363 6.77332455 6.03921569 7.22695028 4.57160186 6.03921569 3.66402247 7.50711933 3.66402247"></polygon>
                    <polygon id="Shape" points="6.86262732 23.0588235 7.31621598 24.5273186 8.78431373 24.5273186 7.5966762 25.4341262 8.05026485 26.9019608 6.86262732 25.9954008 5.67522534 26.9019608 6.128814 25.4341262 4.94117647 24.5273186 6.40896015 24.5273186"></polygon>
                </g>
                <path d="M23.9071896,18.3603079 L19.5903419,22.7690509 C19.4659981,22.896099 19.220385,23 19.044459,23 L18.6715984,23 C18.4956724,23 18.2500593,22.8957509 18.1258863,22.7690509 L16.0930018,20.6880727 C15.9688288,20.5610246 15.9689996,20.3532227 16.0935142,20.2265226 L16.8935504,19.4113264 C17.018065,19.2842783 17.2216609,19.2842783 17.3463463,19.4109783 L18.6451241,20.7315823 C18.7698095,20.8584564 18.9734054,20.8582824 19.0977492,20.7312343 L22.657432,17.0955702 C22.7817758,16.9686962 22.9855425,16.968 23.1103987,17.094352 L23.9061648,17.8996281 C24.0308502,18.026154 24.0313626,18.2330858 23.9071896,18.3603079 L23.9071896,18.3603079 Z" id="Shape-path" fill="#309670"></path>
                <path d="M43,15.6276596 C43,18.4713228 45.178227,20.2553191 47.8539503,20.2553191 C49.5481269,20.2553191 50.8523739,19.5712303 51.8204748,18.5115634 L51.8204748,15.0106383 L47.4909125,15.0106383 L47.4909125,16.9287697 L49.5481269,16.9287697 L49.5481269,17.679926 C49.185089,17.9750231 48.5531343,18.2164662 47.8539503,18.2164662 C46.3883531,18.2164662 45.353023,17.0897317 45.353023,15.6276596 C45.353023,14.1655874 46.3883531,13.0388529 47.8539503,13.0388529 C48.7010386,13.0388529 49.3867767,13.5083256 49.7498145,14.0985199 L51.6860163,13.0790934 C51.0271699,11.9657724 49.8170438,11 47.8539503,11 C45.178227,11 43,12.7839963 43,15.6276596 Z M53.1785052,20.0943571 L53.1785052,11.1475486 L56.943342,11.1475486 C59.7669696,11.1475486 61.7972923,12.8376503 61.7972923,15.6142461 C61.7972923,18.3908418 59.7669696,20.0943571 56.9567878,20.0943571 L53.1785052,20.0943571 Z M55.4911907,18.0823312 L56.943342,18.0823312 C58.5165059,18.0823312 59.4308234,16.9421832 59.4308234,15.6142461 C59.4308234,14.2326549 58.597181,13.1595745 56.9567878,13.1595745 L55.4911907,13.1595745 L55.4911907,18.0823312 Z M62.953635,20.0943571 L62.953635,11.1475486 L67.4445475,11.1475486 C69.4614243,11.1475486 70.5639837,12.5023127 70.5639837,14.1253469 C70.5639837,15.7349676 69.4614243,17.0629047 67.4445475,17.0629047 L65.2663205,17.0629047 L65.2663205,20.0943571 L62.953635,20.0943571 Z M68.2109607,14.1119334 C68.2109607,13.4949121 67.7538019,13.0925069 67.135293,13.0925069 L65.2663205,13.0925069 L65.2663205,15.1045328 L67.135293,15.1045328 C67.7538019,15.1045328 68.2109607,14.7155412 68.2109607,14.1119334 Z M76.6011684,20.0943571 L75.0952337,17.0629047 L73.9119993,17.0629047 L73.9119993,20.0943571 L71.5993138,20.0943571 L71.5993138,11.1475486 L76.0902263,11.1475486 C78.0802114,11.1475486 79.2096625,12.4620722 79.2096625,14.1253469 C79.2096625,15.6813136 78.2550074,16.512951 77.421365,16.8080481 L79.25,20.0943571 L76.6011684,20.0943571 Z M76.8566395,14.0985199 C76.8566395,13.4814986 76.3456973,13.0925069 75.7406343,13.0925069 L73.9119993,13.0925069 L73.9119993,15.1045328 L75.7406343,15.1045328 C76.3456973,15.1045328 76.8566395,14.7155412 76.8566395,14.0985199 Z" id="GDPR" fill="#2B3945"></path>
                <text id="Ready" font-family="HelveticaNeue-Bold, Helvetica Neue" font-size="8" font-weight="bold" letter-spacing="0.200000003" fill="#2B3945">
                    <tspan x="43" y="30">READY</tspan>
                </text>
            </g>
        </g>
    </g>
</svg>