<?xml version="1.0" encoding="UTF-8"?>
<svg width="106px" height="48px" viewBox="0 0 106 48" version="1.1" xmlns="http://www.w3.org/2000/svg" xmlns:xlink="http://www.w3.org/1999/xlink">
    <!-- Generator: Sketch 63 (92445) - https://sketch.com -->
    <title>GDPR compliant - GDPR Copy 9</title>
    <desc>Created with Sketch.</desc>
    <defs>
        <filter x="-12.2%" y="-30.0%" width="124.5%" height="160.0%" filterUnits="objectBoundingBox" id="filter-1">
            <feOffset dx="0" dy="2" in="SourceAlpha" result="shadowOffsetOuter1"></feOffset>
            <feGaussianBlur stdDeviation="2" in="shadowOffsetOuter1" result="shadowBlurOuter1"></feGaussianBlur>
            <feColorMatrix values="0 0 0 0 0.847058824   0 0 0 0 0.866666667   0 0 0 0 0.890196078  0 0 0 1 0" type="matrix" in="shadowBlurOuter1" result="shadowMatrixOuter1"></feColorMatrix>
            <feMerge>
                <feMergeNode in="shadowMatrixOuter1"></feMergeNode>
                <feMergeNode in="SourceGraphic"></feMergeNode>
            </feMerge>
        </filter>
    </defs>
    <g id="Page-1" stroke="none" stroke-width="1" fill="none" fill-rule="evenodd">
        <g id="GDPR-Badges" transform="translate(-84.000000, -343.000000)">
            <g id="GDPR-compliant---GDPR-Copy-9" filter="url(#filter-1)" transform="translate(88.000000, 345.000000)">
                <path d="M6,0 L92,0 C95.3137085,-6.08718376e-16 98,2.6862915 98,6 L98,34 C98,37.3137085 95.3137085,40 92,40 L6,40 C2.6862915,40 4.05812251e-16,37.3137085 0,34 L0,6 C-4.05812251e-16,2.6862915 2.6862915,6.08718376e-16 6,0 Z" id="Rectangle-" fill="#2050E0"></path>
                <path d="M25.9071896,18.3603079 L21.5903419,22.7690509 C21.4659981,22.896099 21.220385,23 21.044459,23 L20.6715984,23 C20.4956724,23 20.2500593,22.8957509 20.1258863,22.7690509 L18.0930018,20.6880727 C17.9688288,20.5610246 17.9689996,20.3532227 18.0935142,20.2265226 L18.8935504,19.4113264 C19.018065,19.2842783 19.2216609,19.2842783 19.3463463,19.4109783 L20.6451241,20.7315823 C20.7698095,20.8584564 20.9734054,20.8582824 21.0977492,20.7312343 L24.657432,17.0955702 C24.7817758,16.9686962 24.9855425,16.968 25.1103987,17.094352 L25.9061648,17.8996281 C26.0308502,18.026154 26.0313626,18.2330858 25.9071896,18.3603079 L25.9071896,18.3603079 Z" id="Shape-path" fill="#FFFFFF"></path>
                <g id="Group" transform="translate(8.000000, 6.000000)" fill="#F8D12E" fill-rule="nonzero">
                    <polygon id="Shape" points="14.0000393 0 14.4535908 1.46796068 15.9215686 1.46796068 14.7340281 2.37517657 15.1875797 3.84313725 14.0000393 2.93534337 12.8127343 3.84313725 13.2663644 2.37517657 12.0784314 1.46796068 13.5464092 1.46796068"></polygon>
                    <polygon id="Shape" points="14.0000393 24.1568627 14.4535908 25.6252632 15.9215686 25.6252632 14.7340281 26.5323426 15.1875797 28 14.0000393 27.0930031 12.8127343 28 13.2663644 26.5323426 12.0784314 25.6252632 13.5464092 25.6252632"></polygon>
                    <polygon id="Shape" points="20.0392157 2.19607843 20.4925966 3.66402247 21.9607843 3.66402247 20.7729955 4.57160186 21.2266904 6.03921569 20.0392157 5.1316363 18.8515054 6.03921569 19.3051218 4.57160186 18.1176471 3.66402247 19.5858348 3.66402247"></polygon>
                    <polygon id="Shape" points="24.9217649 18 25.375118 19.468444 26.8431373 19.468444 25.6554997 20.3756015 26.1094024 21.8431373 24.9217649 20.9363101 23.7340489 21.8431373 24.187716 20.3756015 23 19.468444 24.4680977 19.468444"></polygon>
                    <polygon id="Shape" points="26.0785491 12.0784314 26.5319023 13.5462659 28 13.5462659 26.8123625 14.4534038 27.2659511 15.9215686 26.0785491 15.014761 24.8909116 15.9215686 25.3448143 14.4534038 24.1568627 13.5462659 25.6246464 13.5462659"></polygon>
                    <polygon id="Shape" points="1.92184346 12.0784314 2.37523362 13.5462659 3.84313725 13.5462659 2.65540266 14.4534038 3.10934248 15.9215686 1.92184346 15.014761 0.734030343 15.9215686 1.18773459 14.4534038 0 13.5462659 1.46813921 13.5462659"></polygon>
                    <polygon id="Shape" points="2.92184346 18 3.37523362 19.468444 4.84313725 19.468444 3.65571675 20.3756015 4.10902839 21.8431373 2.92184346 20.9363101 1.73410887 21.8431373 2.18773459 20.3756015 1 19.468444 2.46821773 19.468444"></polygon>
                    <polygon id="Shape" points="24.9217649 6 25.375118 7.46844404 26.8431373 7.46844404 25.6554997 8.37560145 26.1094024 9.84313725 24.9217649 8.93631011 23.7340489 9.84313725 24.187716 8.37560145 23 7.46844404 24.4680977 7.46844404"></polygon>
                    <polygon id="Shape" points="3.42184346 6 3.87523362 7.46844404 5.34313725 7.46844404 4.15571675 8.37560145 4.60902839 9.84313725 3.42184346 8.93631011 2.23410887 9.84313725 2.68773459 8.37560145 1.5 7.46844404 2.96821773 7.46844404"></polygon>
                    <polygon id="Shape" points="21.1373727 23.0588235 21.5907258 24.5265635 23.0588235 24.5265635 21.8708719 25.4342208 22.3247747 26.9019608 21.1373727 25.9948813 19.9494211 26.9019608 20.4034023 25.4342208 19.2156863 24.5265635 20.683784 24.5265635"></polygon>
                    <polygon id="Shape" points="7.96082358 2.19607843 8.41413521 3.66402247 9.88235294 3.66402247 8.69461835 4.57160186 9.14855817 6.03921569 7.96082358 5.1316363 6.77332455 6.03921569 7.22695028 4.57160186 6.03921569 3.66402247 7.50711933 3.66402247"></polygon>
                    <polygon id="Shape" points="6.86262732 23.0588235 7.31621598 24.5273186 8.78431373 24.5273186 7.5966762 25.4341262 8.05026485 26.9019608 6.86262732 25.9954008 5.67522534 26.9019608 6.128814 25.4341262 4.94117647 24.5273186 6.40896015 24.5273186"></polygon>
                </g>
                <path d="M45,15.6276596 C45,18.4713228 47.178227,20.2553191 49.8539503,20.2553191 C51.5481269,20.2553191 52.8523739,19.5712303 53.8204748,18.5115634 L53.8204748,15.0106383 L49.4909125,15.0106383 L49.4909125,16.9287697 L51.5481269,16.9287697 L51.5481269,17.679926 C51.185089,17.9750231 50.5531343,18.2164662 49.8539503,18.2164662 C48.3883531,18.2164662 47.353023,17.0897317 47.353023,15.6276596 C47.353023,14.1655874 48.3883531,13.0388529 49.8539503,13.0388529 C50.7010386,13.0388529 51.3867767,13.5083256 51.7498145,14.0985199 L53.6860163,13.0790934 C53.0271699,11.9657724 51.8170438,11 49.8539503,11 C47.178227,11 45,12.7839963 45,15.6276596 Z M55.1785052,20.0943571 L55.1785052,11.1475486 L58.943342,11.1475486 C61.7669696,11.1475486 63.7972923,12.8376503 63.7972923,15.6142461 C63.7972923,18.3908418 61.7669696,20.0943571 58.9567878,20.0943571 L55.1785052,20.0943571 Z M57.4911907,18.0823312 L58.943342,18.0823312 C60.5165059,18.0823312 61.4308234,16.9421832 61.4308234,15.6142461 C61.4308234,14.2326549 60.597181,13.1595745 58.9567878,13.1595745 L57.4911907,13.1595745 L57.4911907,18.0823312 Z M64.953635,20.0943571 L64.953635,11.1475486 L69.4445475,11.1475486 C71.4614243,11.1475486 72.5639837,12.5023127 72.5639837,14.1253469 C72.5639837,15.7349676 71.4614243,17.0629047 69.4445475,17.0629047 L67.2663205,17.0629047 L67.2663205,20.0943571 L64.953635,20.0943571 Z M70.2109607,14.1119334 C70.2109607,13.4949121 69.7538019,13.0925069 69.135293,13.0925069 L67.2663205,13.0925069 L67.2663205,15.1045328 L69.135293,15.1045328 C69.7538019,15.1045328 70.2109607,14.7155412 70.2109607,14.1119334 Z M78.6011684,20.0943571 L77.0952337,17.0629047 L75.9119993,17.0629047 L75.9119993,20.0943571 L73.5993138,20.0943571 L73.5993138,11.1475486 L78.0902263,11.1475486 C80.0802114,11.1475486 81.2096625,12.4620722 81.2096625,14.1253469 C81.2096625,15.6813136 80.2550074,16.512951 79.421365,16.8080481 L81.25,20.0943571 L78.6011684,20.0943571 Z M78.8566395,14.0985199 C78.8566395,13.4814986 78.3456973,13.0925069 77.7406343,13.0925069 L75.9119993,13.0925069 L75.9119993,15.1045328 L77.7406343,15.1045328 C78.3456973,15.1045328 78.8566395,14.7155412 78.8566395,14.0985199 Z" id="GDPR" fill="#FFFFFF"></path>
                <text id="Ready" font-family="HelveticaNeue-Bold, Helvetica Neue" font-size="8" font-weight="bold" letter-spacing="0.200000003" fill="#FFFFFF">
                    <tspan x="45" y="30">READY</tspan>
                </text>
            </g>
        </g>
    </g>
</svg>