<?xml version="1.0" encoding="UTF-8"?>
<svg width="68px" height="88px" viewBox="0 0 68 88" version="1.1" xmlns="http://www.w3.org/2000/svg" xmlns:xlink="http://www.w3.org/1999/xlink">
    <!-- Generator: Sketch 63 (92445) - https://sketch.com -->
    <title>GDPR compliant - GDPR Copy 2</title>
    <desc>Created with Sketch.</desc>
    <defs>
        <filter x="-20.0%" y="-15.0%" width="140.0%" height="130.0%" filterUnits="objectBoundingBox" id="filter-1">
            <feOffset dx="0" dy="2" in="SourceAlpha" result="shadowOffsetOuter1"></feOffset>
            <feGaussianBlur stdDeviation="2" in="shadowOffsetOuter1" result="shadowBlurOuter1"></feGaussianBlur>
            <feColorMatrix values="0 0 0 0 0.847058824   0 0 0 0 0.866666667   0 0 0 0 0.890196078  0 0 0 1 0" type="matrix" in="shadowBlurOuter1" result="shadowMatrixOuter1"></feColorMatrix>
            <feMerge>
                <feMergeNode in="shadowMatrixOuter1"></feMergeNode>
                <feMergeNode in="SourceGraphic"></feMergeNode>
            </feMerge>
        </filter>
    </defs>
    <g id="Page-1" stroke="none" stroke-width="1" fill="none" fill-rule="evenodd">
        <g id="GDPR-Badges" transform="translate(-324.000000, -173.000000)">
            <g id="GDPR-compliant---GDPR-Copy-2" filter="url(#filter-1)" transform="translate(328.000000, 175.000000)">
                <rect id="Rectangle-" fill="#1F2532" x="0" y="0" width="60" height="80" rx="6"></rect>
                <path d="M6,0 L54,0 C57.3137085,-6.08718376e-16 60,2.6862915 60,6 L60,50 L60,50 L0,50 L0,6 C-4.05812251e-16,2.6862915 2.6862915,6.08718376e-16 6,0 Z" id="Rectangle-" fill="#2050E0"></path>
                <path d="M35.8607844,23.0404619 L29.3855129,29.6535764 C29.1989972,29.8441485 28.8305774,30 28.5666885,30 L28.0073976,30 C27.7435086,30 27.3750889,29.8436264 27.1888294,29.6535764 L24.1395027,26.5321091 C23.9532432,26.3415369 23.9534994,26.029834 24.1402713,25.839784 L25.3403256,24.6169895 C25.5270975,24.4264174 25.8324914,24.4264174 26.0195195,24.6164674 L27.9676861,26.5973735 C28.1547142,26.7876846 28.4601081,26.7874235 28.6466238,26.5968514 L33.986148,21.1433554 C34.1726637,20.9530443 34.4783137,20.9520001 34.665598,21.1415279 L35.8592472,22.3494421 C36.0462753,22.5392311 36.0470439,22.8496287 35.8607844,23.0404619 L35.8607844,23.0404619 Z" id="Shape-path" fill="#FFFFFF"></path>
                <g id="Lock" transform="translate(12.000000, 7.000000)" fill="#F8D12E" fill-rule="nonzero">
                    <g id="Group">
                        <polygon id="Shape" points="18.0000505 0 18.5831882 1.88737802 20.4705882 1.88737802 18.9437505 3.05379845 19.5268882 4.94117647 18.0000505 3.7740129 16.4735155 4.94117647 17.0567542 3.05379845 15.5294118 1.88737802 17.4168118 1.88737802"></polygon>
                        <polygon id="Shape" points="18.0000505 31.0588235 18.5831882 32.9467669 20.4705882 32.9467669 18.9437505 34.1130119 19.5268882 36 18.0000505 34.8338611 16.4735155 36 17.0567542 34.1130119 15.5294118 32.9467669 17.4168118 32.9467669"></polygon>
                        <polygon id="Shape" points="25.7647059 2.82352941 26.3476242 4.71088603 28.2352941 4.71088603 26.708137 5.87777382 27.2914591 7.76470588 25.7647059 6.59781809 24.2376498 7.76470588 24.8208709 5.87777382 23.2941176 4.71088603 25.1817876 4.71088603"></polygon>
                        <polygon id="Shape" points="32.0422692 23.1428571 32.6251517 25.0308566 34.512605 25.0308566 32.9856425 26.1972019 33.5692317 28.0840336 32.0422692 26.918113 30.5152057 28.0840336 31.0984921 26.1972019 29.5714286 25.0308566 31.4589828 25.0308566"></polygon>
                        <polygon id="Shape" points="33.5295632 15.5294118 34.1124458 17.4166276 36 17.4166276 34.4730375 18.5829478 35.0562229 20.4705882 33.5295632 19.3046927 32.0026007 20.4705882 32.5861899 18.5829478 31.0588235 17.4166276 32.945974 17.4166276"></polygon>
                        <polygon id="Shape" points="2.47094159 15.5294118 3.05387179 17.4166276 4.94117647 17.4166276 3.41408914 18.5829478 3.99772605 20.4705882 2.47094159 19.3046927 0.943753298 20.4705882 1.52708733 18.5829478 0 17.4166276 1.88760755 17.4166276"></polygon>
                        <polygon id="Shape" points="3.75665587 23.1428571 4.33958608 25.0308566 6.22689076 25.0308566 4.70020726 26.1972019 5.2830365 28.0840336 3.75665587 26.918113 2.22956854 28.0840336 2.81280162 26.1972019 1.28571429 25.0308566 3.1734228 25.0308566"></polygon>
                        <polygon id="Shape" points="32.0422692 7.71428571 32.6251517 9.60228519 34.512605 9.60228519 32.9856425 10.7686304 33.5692317 12.6554622 32.0422692 11.4895416 30.5152057 12.6554622 31.0984921 10.7686304 29.5714286 9.60228519 31.4589828 9.60228519"></polygon>
                        <polygon id="Shape" points="4.39951302 7.71428571 4.98244322 9.60228519 6.8697479 9.60228519 5.3430644 10.7686304 5.92589364 12.6554622 4.39951302 11.4895416 2.87242568 12.6554622 3.45565876 10.7686304 1.92857143 9.60228519 3.81627994 9.60228519"></polygon>
                        <polygon id="Shape" points="27.176622 29.6470588 27.7595046 31.534153 29.6470588 31.534153 28.1196925 32.7011411 28.7032817 34.5882353 27.176622 33.4219903 25.6492557 34.5882353 26.2329458 32.7011411 24.7058824 31.534153 26.5934366 31.534153"></polygon>
                        <polygon id="Shape" points="10.2353446 2.82352941 10.8181738 4.71088603 12.7058824 4.71088603 11.178795 5.87777382 11.7624319 7.76470588 10.2353446 6.59781809 8.70856014 7.76470588 9.29179321 5.87777382 7.76470588 4.71088603 9.65201056 4.71088603"></polygon>
                        <polygon id="Shape" points="8.82337799 29.6470588 9.4065634 31.5351239 11.2941176 31.5351239 9.76715511 32.7010195 10.3503405 34.5882353 8.82337799 33.4226582 7.2967183 34.5882353 7.87990371 32.7010195 6.35294118 31.5351239 8.24009162 31.5351239"></polygon>
                    </g>
                </g>
                <path d="M16,58.5 C16,60.6507246 17.6474407,62 19.6711486,62 C20.9524913,62 21.9389219,61.4826087 22.6711177,60.6811594 L22.6711177,58.0333333 L19.3965752,58.0333333 L19.3965752,59.484058 L20.9524913,59.484058 L20.9524913,60.0521739 C20.6779179,60.2753623 20.1999567,60.457971 19.6711486,60.457971 C18.5626855,60.457971 17.7796427,59.6057971 17.7796427,58.5 C17.7796427,57.3942029 18.5626855,56.542029 19.6711486,56.542029 C20.31182,56.542029 20.8304587,56.8971014 21.1050321,57.3434783 L22.5694238,56.5724638 C22.0711239,55.7304348 21.1558791,55 19.6711486,55 C17.6474407,55 16,56.3492754 16,58.5 Z M23.6982258,61.8782609 L23.6982258,55.1115942 L26.5456541,55.1115942 C28.6812253,55.1115942 30.2168027,56.3898551 30.2168027,58.4898551 C30.2168027,60.5898551 28.6812253,61.8782609 26.5558234,61.8782609 L23.6982258,61.8782609 Z M25.4473603,60.3565217 L26.5456541,60.3565217 C27.7354723,60.3565217 28.4269906,59.4942029 28.4269906,58.4898551 C28.4269906,57.4449275 27.7964886,56.6333333 26.5558234,56.6333333 L25.4473603,56.6333333 L25.4473603,60.3565217 Z M31.0913699,61.8782609 L31.0913699,55.1115942 L34.4879451,55.1115942 C36.0133531,55.1115942 36.8472428,56.1362319 36.8472428,57.3637681 C36.8472428,58.5811594 36.0133531,59.5855072 34.4879451,59.5855072 L32.8405045,59.5855072 L32.8405045,61.8782609 L31.0913699,61.8782609 Z M35.0676001,57.3536232 C35.0676001,56.8869565 34.721841,56.5826087 34.2540492,56.5826087 L32.8405045,56.5826087 L32.8405045,58.1043478 L34.2540492,58.1043478 C34.721841,58.1043478 35.0676001,57.8101449 35.0676001,57.3536232 Z M41.4132975,61.8782609 L40.2743262,59.5855072 L39.3794201,59.5855072 L39.3794201,61.8782609 L37.6302856,61.8782609 L37.6302856,55.1115942 L41.0268608,55.1115942 C42.53193,55.1115942 43.3861585,56.1057971 43.3861585,57.3637681 C43.3861585,58.5405797 42.664132,59.1695652 42.0336301,59.3927536 L43.4166667,61.8782609 L41.4132975,61.8782609 Z M41.6065158,57.3434783 C41.6065158,56.8768116 41.2200791,56.5826087 40.7624567,56.5826087 L39.3794201,56.5826087 L39.3794201,58.1043478 L40.7624567,58.1043478 C41.2200791,58.1043478 41.6065158,57.8101449 41.6065158,57.3434783 Z" id="GDPR" fill="#FFFFFF"></path>
                <text id="Ready" font-family="HelveticaNeue-Bold, Helvetica Neue" font-size="7.4000001" font-weight="bold" letter-spacing="0.185000002" fill="#FFFFFF">
                    <tspan x="16.7243998" y="72">READY</tspan>
                </text>
            </g>
        </g>
    </g>
</svg>