<?xml version="1.0" encoding="UTF-8"?>
<svg width="98px" height="40px" viewBox="0 0 98 40" version="1.1" xmlns="http://www.w3.org/2000/svg" xmlns:xlink="http://www.w3.org/1999/xlink">
    <!-- Generator: Sketch 63 (92445) - https://sketch.com -->
    <title>GDPR compliant - GDPR Copy 14</title>
    <desc>Created with Sketch.</desc>
    <g id="Page-1" stroke="none" stroke-width="1" fill="none" fill-rule="evenodd">
        <g id="GDPR-Badges" transform="translate(-258.000000, -345.000000)">
            <g id="GDPR-compliant---GDPR-Copy-14" transform="translate(258.000000, 345.000000)">
                <path d="M6,0 L92,0 C95.3137085,-6.08718376e-16 98,2.6862915 98,6 L98,34 C98,37.3137085 95.3137085,40 92,40 L6,40 C2.6862915,40 4.05812251e-16,37.3137085 0,34 L0,6 C-4.05812251e-16,2.6862915 2.6862915,6.08718376e-16 6,0 Z" id="Rectangle-" fill="#000000"></path>
                <path d="M6,0 L40,0 L40,0 L40,40 L6,40 C2.6862915,40 4.05812251e-16,37.3137085 0,34 L0,6 C-4.05812251e-16,2.6862915 2.6862915,6.08718376e-16 6,0 Z" id="Rectangle-" fill="#2050E0"></path>
                <path d="M23.9071896,18.3603079 L19.5903419,22.7690509 C19.4659981,22.896099 19.220385,23 19.044459,23 L18.6715984,23 C18.4956724,23 18.2500593,22.8957509 18.1258863,22.7690509 L16.0930018,20.6880727 C15.9688288,20.5610246 15.9689996,20.3532227 16.0935142,20.2265226 L16.8935504,19.4113264 C17.018065,19.2842783 17.2216609,19.2842783 17.3463463,19.4109783 L18.6451241,20.7315823 C18.7698095,20.8584564 18.9734054,20.8582824 19.0977492,20.7312343 L22.657432,17.0955702 C22.7817758,16.9686962 22.9855425,16.968 23.1103987,17.094352 L23.9061648,17.8996281 C24.0308502,18.026154 24.0313626,18.2330858 23.9071896,18.3603079 L23.9071896,18.3603079 Z" id="Shape-path" fill="#FFFFFF"></path>
                <g id="Group" transform="translate(6.000000, 6.000000)" fill="#F8D12E" fill-rule="nonzero">
                    <polygon id="Shape" points="14.0000393 0 14.4535908 1.46796068 15.9215686 1.46796068 14.7340281 2.37517657 15.1875797 3.84313725 14.0000393 2.93534337 12.8127343 3.84313725 13.2663644 2.37517657 12.0784314 1.46796068 13.5464092 1.46796068"></polygon>
                    <polygon id="Shape" points="14.0000393 24.1568627 14.4535908 25.6252632 15.9215686 25.6252632 14.7340281 26.5323426 15.1875797 28 14.0000393 27.0930031 12.8127343 28 13.2663644 26.5323426 12.0784314 25.6252632 13.5464092 25.6252632"></polygon>
                    <polygon id="Shape" points="20.0392157 2.19607843 20.4925966 3.66402247 21.9607843 3.66402247 20.7729955 4.57160186 21.2266904 6.03921569 20.0392157 5.1316363 18.8515054 6.03921569 19.3051218 4.57160186 18.1176471 3.66402247 19.5858348 3.66402247"></polygon>
                    <polygon id="Shape" points="24.9217649 18 25.375118 19.468444 26.8431373 19.468444 25.6554997 20.3756015 26.1094024 21.8431373 24.9217649 20.9363101 23.7340489 21.8431373 24.187716 20.3756015 23 19.468444 24.4680977 19.468444"></polygon>
                    <polygon id="Shape" points="26.0785491 12.0784314 26.5319023 13.5462659 28 13.5462659 26.8123625 14.4534038 27.2659511 15.9215686 26.0785491 15.014761 24.8909116 15.9215686 25.3448143 14.4534038 24.1568627 13.5462659 25.6246464 13.5462659"></polygon>
                    <polygon id="Shape" points="1.92184346 12.0784314 2.37523362 13.5462659 3.84313725 13.5462659 2.65540266 14.4534038 3.10934248 15.9215686 1.92184346 15.014761 0.734030343 15.9215686 1.18773459 14.4534038 0 13.5462659 1.46813921 13.5462659"></polygon>
                    <polygon id="Shape" points="2.92184346 18 3.37523362 19.468444 4.84313725 19.468444 3.65571675 20.3756015 4.10902839 21.8431373 2.92184346 20.9363101 1.73410887 21.8431373 2.18773459 20.3756015 1 19.468444 2.46821773 19.468444"></polygon>
                    <polygon id="Shape" points="24.9217649 6 25.375118 7.46844404 26.8431373 7.46844404 25.6554997 8.37560145 26.1094024 9.84313725 24.9217649 8.93631011 23.7340489 9.84313725 24.187716 8.37560145 23 7.46844404 24.4680977 7.46844404"></polygon>
                    <polygon id="Shape" points="3.42184346 6 3.87523362 7.46844404 5.34313725 7.46844404 4.15571675 8.37560145 4.60902839 9.84313725 3.42184346 8.93631011 2.23410887 9.84313725 2.68773459 8.37560145 1.5 7.46844404 2.96821773 7.46844404"></polygon>
                    <polygon id="Shape" points="21.1373727 23.0588235 21.5907258 24.5265635 23.0588235 24.5265635 21.8708719 25.4342208 22.3247747 26.9019608 21.1373727 25.9948813 19.9494211 26.9019608 20.4034023 25.4342208 19.2156863 24.5265635 20.683784 24.5265635"></polygon>
                    <polygon id="Shape" points="7.96082358 2.19607843 8.41413521 3.66402247 9.88235294 3.66402247 8.69461835 4.57160186 9.14855817 6.03921569 7.96082358 5.1316363 6.77332455 6.03921569 7.22695028 4.57160186 6.03921569 3.66402247 7.50711933 3.66402247"></polygon>
                    <polygon id="Shape" points="6.86262732 23.0588235 7.31621598 24.5273186 8.78431373 24.5273186 7.5966762 25.4341262 8.05026485 26.9019608 6.86262732 25.9954008 5.67522534 26.9019608 6.128814 25.4341262 4.94117647 24.5273186 6.40896015 24.5273186"></polygon>
                </g>
                <path d="M47,15.6276596 C47,18.4713228 49.178227,20.2553191 51.8539503,20.2553191 C53.5481269,20.2553191 54.8523739,19.5712303 55.8204748,18.5115634 L55.8204748,15.0106383 L51.4909125,15.0106383 L51.4909125,16.9287697 L53.5481269,16.9287697 L53.5481269,17.679926 C53.185089,17.9750231 52.5531343,18.2164662 51.8539503,18.2164662 C50.3883531,18.2164662 49.353023,17.0897317 49.353023,15.6276596 C49.353023,14.1655874 50.3883531,13.0388529 51.8539503,13.0388529 C52.7010386,13.0388529 53.3867767,13.5083256 53.7498145,14.0985199 L55.6860163,13.0790934 C55.0271699,11.9657724 53.8170438,11 51.8539503,11 C49.178227,11 47,12.7839963 47,15.6276596 Z M57.1785052,20.0943571 L57.1785052,11.1475486 L60.943342,11.1475486 C63.7669696,11.1475486 65.7972923,12.8376503 65.7972923,15.6142461 C65.7972923,18.3908418 63.7669696,20.0943571 60.9567878,20.0943571 L57.1785052,20.0943571 Z M59.4911907,18.0823312 L60.943342,18.0823312 C62.5165059,18.0823312 63.4308234,16.9421832 63.4308234,15.6142461 C63.4308234,14.2326549 62.597181,13.1595745 60.9567878,13.1595745 L59.4911907,13.1595745 L59.4911907,18.0823312 Z M66.953635,20.0943571 L66.953635,11.1475486 L71.4445475,11.1475486 C73.4614243,11.1475486 74.5639837,12.5023127 74.5639837,14.1253469 C74.5639837,15.7349676 73.4614243,17.0629047 71.4445475,17.0629047 L69.2663205,17.0629047 L69.2663205,20.0943571 L66.953635,20.0943571 Z M72.2109607,14.1119334 C72.2109607,13.4949121 71.7538019,13.0925069 71.135293,13.0925069 L69.2663205,13.0925069 L69.2663205,15.1045328 L71.135293,15.1045328 C71.7538019,15.1045328 72.2109607,14.7155412 72.2109607,14.1119334 Z M80.6011684,20.0943571 L79.0952337,17.0629047 L77.9119993,17.0629047 L77.9119993,20.0943571 L75.5993138,20.0943571 L75.5993138,11.1475486 L80.0902263,11.1475486 C82.0802114,11.1475486 83.2096625,12.4620722 83.2096625,14.1253469 C83.2096625,15.6813136 82.2550074,16.512951 81.421365,16.8080481 L83.25,20.0943571 L80.6011684,20.0943571 Z M80.8566395,14.0985199 C80.8566395,13.4814986 80.3456973,13.0925069 79.7406343,13.0925069 L77.9119993,13.0925069 L77.9119993,15.1045328 L79.7406343,15.1045328 C80.3456973,15.1045328 80.8566395,14.7155412 80.8566395,14.0985199 Z" id="GDPR" fill="#FFFFFF"></path>
                <text id="Ready" font-family="HelveticaNeue-Bold, Helvetica Neue" font-size="8" font-weight="bold" letter-spacing="0.200000003" fill="#FFFFFF">
                    <tspan x="47" y="30">READY</tspan>
                </text>
            </g>
        </g>
    </g>
</svg>