<?xml version="1.0" encoding="UTF-8"?>
<svg width="68px" height="88px" viewBox="0 0 68 88" version="1.1" xmlns="http://www.w3.org/2000/svg" xmlns:xlink="http://www.w3.org/1999/xlink">
    <!-- Generator: Sketch 63 (92445) - https://sketch.com -->
    <title>GDPR compliant - GDPR</title>
    <desc>Created with Sketch.</desc>
    <defs>
        <filter x="-20.0%" y="-15.0%" width="140.0%" height="130.0%" filterUnits="objectBoundingBox" id="filter-1">
            <feOffset dx="0" dy="2" in="SourceAlpha" result="shadowOffsetOuter1"></feOffset>
            <feGaussianBlur stdDeviation="2" in="shadowOffsetOuter1" result="shadowBlurOuter1"></feGaussianBlur>
            <feColorMatrix values="0 0 0 0 0.847058824   0 0 0 0 0.866666667   0 0 0 0 0.890196078  0 0 0 1 0" type="matrix" in="shadowBlurOuter1" result="shadowMatrixOuter1"></feColorMatrix>
            <feMerge>
                <feMergeNode in="shadowMatrixOuter1"></feMergeNode>
                <feMergeNode in="SourceGraphic"></feMergeNode>
            </feMerge>
        </filter>
    </defs>
    <g id="Page-1" stroke="none" stroke-width="1" fill="none" fill-rule="evenodd">
        <g id="GDPR-Badges" transform="translate(-594.000000, -173.000000)">
            <g id="GDPR-compliant---GDPR" filter="url(#filter-1)" transform="translate(598.000000, 175.000000)">
                <rect id="Rectangle-" stroke="#E7E7E7" fill="#FFFFFF" x="0.5" y="0.5" width="59" height="79" rx="6"></rect>
                <path d="M6,0 L54,0 C57.3137085,-6.08718376e-16 60,2.6862915 60,6 L60,60 L60,60 L0,60 L0,6 C-4.05812251e-16,2.6862915 2.6862915,6.08718376e-16 6,0 Z" id="Rectangle-" fill="#2050E0"></path>
                <g id="Group" transform="translate(6.000000, 6.000000)" fill="#F8D12E" fill-rule="nonzero">
                    <polygon id="Shape" points="24.0000673 0 24.7775843 2.51650403 27.2941176 2.51650403 25.258334 4.07173126 26.035851 6.58823529 24.0000673 5.0320172 21.9646874 6.58823529 22.742339 4.07173126 20.7058824 2.51650403 23.2224157 2.51650403"></polygon>
                    <polygon id="Shape" points="24.0000673 41.4117647 24.7775843 43.9290226 27.2941176 43.9290226 25.258334 45.4840159 26.035851 48 24.0000673 46.4451482 21.9646874 48 22.742339 45.4840159 20.7058824 43.9290226 23.2224157 43.9290226"></polygon>
                    <polygon id="Shape" points="34.3529412 3.76470588 35.1301656 6.28118137 37.6470588 6.28118137 35.6108494 7.83703176 36.3886122 10.3529412 34.3529412 8.79709079 32.3168663 10.3529412 33.0944945 7.83703176 31.0588235 6.28118137 33.5757168 6.28118137"></polygon>
                    <polygon id="Shape" points="42.2943868 10.3152941 43.0715477 12.8315819 45.5882353 12.8315819 43.5521922 14.3872416 44.3298915 16.9035294 42.2943868 15.3484358 40.2583438 16.9035294 41.0360431 14.3872416 39 12.8315819 41.5161492 12.8315819"></polygon>
                    <polygon id="Shape" points="42.8238659 31.0588235 43.6010427 33.5761562 46.1176471 33.5761562 44.081697 35.1312832 44.859816 37.6470588 42.8238659 36.092498 40.7877813 37.6470588 41.5654964 35.1312832 39.5294118 33.5761562 42.0461508 33.5761562"></polygon>
                    <polygon id="Shape" points="5.69438078 10.3152941 6.4716687 12.8315819 8.98822919 12.8315819 6.95239179 14.3872416 7.72967971 16.9035294 5.69438078 15.3484358 3.65813952 16.9035294 4.4358313 14.3872416 2.3999939 12.8315819 4.91709287 12.8315819"></polygon>
                    <polygon id="Shape" points="44.7060843 20.7058824 45.483261 23.2221701 48 23.2221701 45.96405 24.7772637 46.7416305 27.2941176 44.7060843 25.7395902 42.6701342 27.2941176 43.4482532 24.7772637 41.4117647 23.2221701 43.9279653 23.2221701"></polygon>
                    <polygon id="Shape" points="3.29458878 20.7058824 4.07182905 23.2221701 6.58823529 23.2221701 4.55211885 24.7772637 5.3303014 27.2941176 3.29458878 25.7395902 1.25833773 27.2941176 2.03611644 24.7772637 0 23.2221701 2.51681007 23.2221701"></polygon>
                    <polygon id="Shape" points="5.17694172 31.0588235 5.954182 33.5761562 8.47058824 33.5761562 6.43501023 35.1312832 7.21211589 37.6470588 5.17694172 36.092498 3.14082528 37.6470588 3.91846938 35.1312832 1.88235294 33.5761562 4.39929762 33.5761562"></polygon>
                    <polygon id="Shape" points="36.235496 39.5294118 37.0126728 42.0455374 39.5294118 42.0455374 37.4929233 43.6015215 38.2710423 46.1176471 36.235496 44.5626537 34.1990076 46.1176471 34.9772611 43.6015215 32.9411765 42.0455374 35.4579155 42.0455374"></polygon>
                    <polygon id="Shape" points="13.6471261 3.76470588 14.4242318 6.28118137 16.9411765 6.28118137 14.90506 7.83703176 15.6832426 10.3529412 13.6471261 8.79709079 11.6114135 10.3529412 12.3890576 7.83703176 10.3529412 6.28118137 12.8693474 6.28118137"></polygon>
                    <polygon id="Shape" points="11.764504 39.5294118 12.5420845 42.0468319 15.0588235 42.0468319 13.0228735 43.6013593 13.800454 46.1176471 11.764504 44.5635442 9.72895773 46.1176471 10.5065383 43.6013593 8.47058824 42.0468319 10.9867888 42.0468319"></polygon>
                </g>
                <path d="M16,31.5 C16,33.6507246 17.6474407,35 19.6711486,35 C20.9524913,35 21.9389219,34.4826087 22.6711177,33.6811594 L22.6711177,31.0333333 L19.3965752,31.0333333 L19.3965752,32.484058 L20.9524913,32.484058 L20.9524913,33.0521739 C20.6779179,33.2753623 20.1999567,33.457971 19.6711486,33.457971 C18.5626855,33.457971 17.7796427,32.6057971 17.7796427,31.5 C17.7796427,30.3942029 18.5626855,29.542029 19.6711486,29.542029 C20.31182,29.542029 20.8304587,29.8971014 21.1050321,30.3434783 L22.5694238,29.5724638 C22.0711239,28.7304348 21.1558791,28 19.6711486,28 C17.6474407,28 16,29.3492754 16,31.5 Z M23.6982258,34.8782609 L23.6982258,28.1115942 L26.5456541,28.1115942 C28.6812253,28.1115942 30.2168027,29.3898551 30.2168027,31.4898551 C30.2168027,33.5898551 28.6812253,34.8782609 26.5558234,34.8782609 L23.6982258,34.8782609 Z M25.4473603,33.3565217 L26.5456541,33.3565217 C27.7354723,33.3565217 28.4269906,32.4942029 28.4269906,31.4898551 C28.4269906,30.4449275 27.7964886,29.6333333 26.5558234,29.6333333 L25.4473603,29.6333333 L25.4473603,33.3565217 Z M31.0913699,34.8782609 L31.0913699,28.1115942 L34.4879451,28.1115942 C36.0133531,28.1115942 36.8472428,29.1362319 36.8472428,30.3637681 C36.8472428,31.5811594 36.0133531,32.5855072 34.4879451,32.5855072 L32.8405045,32.5855072 L32.8405045,34.8782609 L31.0913699,34.8782609 Z M35.0676001,30.3536232 C35.0676001,29.8869565 34.721841,29.5826087 34.2540492,29.5826087 L32.8405045,29.5826087 L32.8405045,31.1043478 L34.2540492,31.1043478 C34.721841,31.1043478 35.0676001,30.8101449 35.0676001,30.3536232 Z M41.4132975,34.8782609 L40.2743262,32.5855072 L39.3794201,32.5855072 L39.3794201,34.8782609 L37.6302856,34.8782609 L37.6302856,28.1115942 L41.0268608,28.1115942 C42.53193,28.1115942 43.3861585,29.1057971 43.3861585,30.3637681 C43.3861585,31.5405797 42.664132,32.1695652 42.0336301,32.3927536 L43.4166667,34.8782609 L41.4132975,34.8782609 Z M41.6065158,30.3434783 C41.6065158,29.8768116 41.2200791,29.5826087 40.7624567,29.5826087 L39.3794201,29.5826087 L39.3794201,31.1043478 L40.7624567,31.1043478 C41.2200791,31.1043478 41.6065158,30.8101449 41.6065158,30.3434783 Z" id="GDPR" fill="#FFFFFF"></path>
                <text id="Compliant" font-family="HelveticaNeue-CondensedBold, Helvetica Neue" font-size="10" font-style="condensed" font-weight="bold" letter-spacing="0.25" fill="#2B3945">
                    <tspan x="5.46" y="72">COMPLIANT</tspan>
                </text>
            </g>
        </g>
    </g>
</svg>