<?xml version="1.0" encoding="UTF-8"?>
<svg width="68px" height="88px" viewBox="0 0 68 88" version="1.1" xmlns="http://www.w3.org/2000/svg" xmlns:xlink="http://www.w3.org/1999/xlink">
    <!-- Generator: Sketch 63 (92445) - https://sketch.com -->
    <title>GDPR compliant - GDPR Copy 5</title>
    <desc>Created with Sketch.</desc>
    <defs>
        <filter x="-20.0%" y="-15.0%" width="140.0%" height="130.0%" filterUnits="objectBoundingBox" id="filter-1">
            <feOffset dx="0" dy="2" in="SourceAlpha" result="shadowOffsetOuter1"></feOffset>
            <feGaussianBlur stdDeviation="2" in="shadowOffsetOuter1" result="shadowBlurOuter1"></feGaussianBlur>
            <feColorMatrix values="0 0 0 0 0.847058824   0 0 0 0 0.866666667   0 0 0 0 0.890196078  0 0 0 1 0" type="matrix" in="shadowBlurOuter1" result="shadowMatrixOuter1"></feColorMatrix>
            <feMerge>
                <feMergeNode in="shadowMatrixOuter1"></feMergeNode>
                <feMergeNode in="SourceGraphic"></feMergeNode>
            </feMerge>
        </filter>
    </defs>
    <g id="Page-1" stroke="none" stroke-width="1" fill="none" fill-rule="evenodd">
        <g id="GDPR-Badges" transform="translate(-84.000000, -173.000000)">
            <g id="GDPR-compliant---GDPR-Copy-5" filter="url(#filter-1)" transform="translate(88.000000, 175.000000)">
                <rect id="Rectangle-" fill="#2050E0" x="0" y="0" width="60" height="80" rx="6"></rect>
                <g id="Lock" transform="translate(12.000000, 7.000000)" fill-rule="nonzero">
                    <path d="M22.0408163,16.8896104 L21.4897959,16.8896104 L21.4897959,15.1801948 C21.4897959,13.190625 19.9239796,11.5714286 18,11.5714286 C16.0760204,11.5714286 14.5102041,13.190625 14.5102041,15.1801948 L14.5102041,16.8896104 L13.9591837,16.8896104 C13.3507653,16.8896104 12.8571429,17.4000609 12.8571429,18.0292208 L12.8571429,22.5876623 C12.8571429,23.2168222 13.3507653,23.7272727 13.9591837,23.7272727 L22.0408163,23.7272727 C22.6492347,23.7272727 23.1428571,23.2168222 23.1428571,22.5876623 L23.1428571,18.0292208 C23.1428571,17.4000609 22.6492347,16.8896104 22.0408163,16.8896104 Z M19.6530612,16.8896104 L16.3469388,16.8896104 L16.3469388,15.1801948 C16.3469388,14.237642 17.0885204,13.4707792 18,13.4707792 C18.9114796,13.4707792 19.6530612,14.237642 19.6530612,15.1801948 L19.6530612,16.8896104 Z" id="Shape" fill="#FFFFFF"></path>
                    <g id="Group" fill="#F8D12E">
                        <polygon id="Shape" points="18.0000505 0 18.5831882 1.88737802 20.4705882 1.88737802 18.9437505 3.05379845 19.5268882 4.94117647 18.0000505 3.7740129 16.4735155 4.94117647 17.0567542 3.05379845 15.5294118 1.88737802 17.4168118 1.88737802"></polygon>
                        <polygon id="Shape" points="18.0000505 31.0588235 18.5831882 32.9467669 20.4705882 32.9467669 18.9437505 34.1130119 19.5268882 36 18.0000505 34.8338611 16.4735155 36 17.0567542 34.1130119 15.5294118 32.9467669 17.4168118 32.9467669"></polygon>
                        <polygon id="Shape" points="25.7647059 2.82352941 26.3476242 4.71088603 28.2352941 4.71088603 26.708137 5.87777382 27.2914591 7.76470588 25.7647059 6.59781809 24.2376498 7.76470588 24.8208709 5.87777382 23.2941176 4.71088603 25.1817876 4.71088603"></polygon>
                        <polygon id="Shape" points="32.0422692 23.1428571 32.6251517 25.0308566 34.512605 25.0308566 32.9856425 26.1972019 33.5692317 28.0840336 32.0422692 26.918113 30.5152057 28.0840336 31.0984921 26.1972019 29.5714286 25.0308566 31.4589828 25.0308566"></polygon>
                        <polygon id="Shape" points="33.5295632 15.5294118 34.1124458 17.4166276 36 17.4166276 34.4730375 18.5829478 35.0562229 20.4705882 33.5295632 19.3046927 32.0026007 20.4705882 32.5861899 18.5829478 31.0588235 17.4166276 32.945974 17.4166276"></polygon>
                        <polygon id="Shape" points="2.47094159 15.5294118 3.05387179 17.4166276 4.94117647 17.4166276 3.41408914 18.5829478 3.99772605 20.4705882 2.47094159 19.3046927 0.943753298 20.4705882 1.52708733 18.5829478 0 17.4166276 1.88760755 17.4166276"></polygon>
                        <polygon id="Shape" points="3.75665587 23.1428571 4.33958608 25.0308566 6.22689076 25.0308566 4.70020726 26.1972019 5.2830365 28.0840336 3.75665587 26.918113 2.22956854 28.0840336 2.81280162 26.1972019 1.28571429 25.0308566 3.1734228 25.0308566"></polygon>
                        <polygon id="Shape" points="32.0422692 7.71428571 32.6251517 9.60228519 34.512605 9.60228519 32.9856425 10.7686304 33.5692317 12.6554622 32.0422692 11.4895416 30.5152057 12.6554622 31.0984921 10.7686304 29.5714286 9.60228519 31.4589828 9.60228519"></polygon>
                        <polygon id="Shape" points="4.39951302 7.71428571 4.98244322 9.60228519 6.8697479 9.60228519 5.3430644 10.7686304 5.92589364 12.6554622 4.39951302 11.4895416 2.87242568 12.6554622 3.45565876 10.7686304 1.92857143 9.60228519 3.81627994 9.60228519"></polygon>
                        <polygon id="Shape" points="27.176622 29.6470588 27.7595046 31.534153 29.6470588 31.534153 28.1196925 32.7011411 28.7032817 34.5882353 27.176622 33.4219903 25.6492557 34.5882353 26.2329458 32.7011411 24.7058824 31.534153 26.5934366 31.534153"></polygon>
                        <polygon id="Shape" points="10.2353446 2.82352941 10.8181738 4.71088603 12.7058824 4.71088603 11.178795 5.87777382 11.7624319 7.76470588 10.2353446 6.59781809 8.70856014 7.76470588 9.29179321 5.87777382 7.76470588 4.71088603 9.65201056 4.71088603"></polygon>
                        <polygon id="Shape" points="8.82337799 29.6470588 9.4065634 31.5351239 11.2941176 31.5351239 9.76715511 32.7010195 10.3503405 34.5882353 8.82337799 33.4226582 7.2967183 34.5882353 7.87990371 32.7010195 6.35294118 31.5351239 8.24009162 31.5351239"></polygon>
                    </g>
                </g>
                <path d="M16,55.5 C16,57.6507246 17.6474407,59 19.6711486,59 C20.9524913,59 21.9389219,58.4826087 22.6711177,57.6811594 L22.6711177,55.0333333 L19.3965752,55.0333333 L19.3965752,56.484058 L20.9524913,56.484058 L20.9524913,57.0521739 C20.6779179,57.2753623 20.1999567,57.457971 19.6711486,57.457971 C18.5626855,57.457971 17.7796427,56.6057971 17.7796427,55.5 C17.7796427,54.3942029 18.5626855,53.542029 19.6711486,53.542029 C20.31182,53.542029 20.8304587,53.8971014 21.1050321,54.3434783 L22.5694238,53.5724638 C22.0711239,52.7304348 21.1558791,52 19.6711486,52 C17.6474407,52 16,53.3492754 16,55.5 Z M23.6982258,58.8782609 L23.6982258,52.1115942 L26.5456541,52.1115942 C28.6812253,52.1115942 30.2168027,53.3898551 30.2168027,55.4898551 C30.2168027,57.5898551 28.6812253,58.8782609 26.5558234,58.8782609 L23.6982258,58.8782609 Z M25.4473603,57.3565217 L26.5456541,57.3565217 C27.7354723,57.3565217 28.4269906,56.4942029 28.4269906,55.4898551 C28.4269906,54.4449275 27.7964886,53.6333333 26.5558234,53.6333333 L25.4473603,53.6333333 L25.4473603,57.3565217 Z M31.0913699,58.8782609 L31.0913699,52.1115942 L34.4879451,52.1115942 C36.0133531,52.1115942 36.8472428,53.1362319 36.8472428,54.3637681 C36.8472428,55.5811594 36.0133531,56.5855072 34.4879451,56.5855072 L32.8405045,56.5855072 L32.8405045,58.8782609 L31.0913699,58.8782609 Z M35.0676001,54.3536232 C35.0676001,53.8869565 34.721841,53.5826087 34.2540492,53.5826087 L32.8405045,53.5826087 L32.8405045,55.1043478 L34.2540492,55.1043478 C34.721841,55.1043478 35.0676001,54.8101449 35.0676001,54.3536232 Z M41.4132975,58.8782609 L40.2743262,56.5855072 L39.3794201,56.5855072 L39.3794201,58.8782609 L37.6302856,58.8782609 L37.6302856,52.1115942 L41.0268608,52.1115942 C42.53193,52.1115942 43.3861585,53.1057971 43.3861585,54.3637681 C43.3861585,55.5405797 42.664132,56.1695652 42.0336301,56.3927536 L43.4166667,58.8782609 L41.4132975,58.8782609 Z M41.6065158,54.3434783 C41.6065158,53.8768116 41.2200791,53.5826087 40.7624567,53.5826087 L39.3794201,53.5826087 L39.3794201,55.1043478 L40.7624567,55.1043478 C41.2200791,55.1043478 41.6065158,54.8101449 41.6065158,54.3434783 Z" id="GDPR" fill="#FFFFFF"></path>
                <text id="Compliant" font-family="HelveticaNeue-Bold, Helvetica Neue" font-size="7.5" font-weight="bold" letter-spacing="0.1875" fill="#FFFFFF">
                    <tspan x="6.58875" y="69">COMPLIANT</tspan>
                </text>
            </g>
        </g>
    </g>
</svg>